<?xml version="1.0" encoding="utf-8"?>
<!-- Generator: Adobe Illustrator 23.1.1, SVG Export Plug-In . SVG Version: 6.00 Build 0)  -->
<svg version="1.1" xmlns="http://www.w3.org/2000/svg" xmlns:xlink="http://www.w3.org/1999/xlink" x="0px" y="0px"
	 viewBox="0 0 141.74 141.73" style="enable-background:new 0 0 141.74 141.73;" xml:space="preserve">
<style type="text/css">
	.st0{fill:#B179B3;}
	.st1{fill:#FFFFFF;}
	.st2{fill:none;}
</style>
<g id="Layer_4">
	<rect x="-12.05" y="-11.75" class="st0" width="164.14" height="164.14"/>
</g>
<g id="Layer_2">
	<g id="XMLID_1_">
		<g>
			<path class="st1" d="M93.11,118.2c-5.58,0,0.07-8.65,0.07-8.65H82.4h-1.11H70.87v-0.26h14.56c0,0-2.13-14.71-3.67-25.34
				c-1.54-10.64,6.57-21.21,6.57-21.21H70.87v-0.34h20.07v-5.28H70.87v-0.19h16.57v-5.27H70.87v-0.2h15.02v-2.98H70.87v-0.31h12.84
				c0,0,5.04-18.81,4.59-21.45c-0.46-2.64-17.43-2.29-17.43-2.29v-0.36h7.68V22.9l-1.26-1.03l-1.83-2.52l3.78,0.23v-8.72l-4.53,0.69
				c2.86-2.86-3.67-7.67-3.84-7.79h0V0c39.14,0,70.87,31.73,70.87,70.87c0,30.93-19.81,57.23-47.43,66.9
				c-0.73-1.77-5.43-13.62,0.02-13.62H83.02v0H70.87v-0.31h25.72v-5.28H70.87v-0.36h10.43h1.11H93.11z"/>
			<path class="st1" d="M94.39,137.98h-0.73c0.21-0.07,0.42-0.14,0.64-0.22C94.36,137.91,94.39,137.98,94.39,137.98z"/>
			<path class="st1" d="M83.02,137.98h10.64c-7.15,2.43-14.82,3.75-22.8,3.75v-3.75h10.99H83.02z"/>
			<polygon class="st1" points="83.02,124.15 83.02,124.15 81.86,124.15 70.87,124.15 70.87,124.15 			"/>
			<path class="st1" d="M70.87,62.72v46.56H56.3c0,0,2.13-14.71,3.67-25.34c1.54-10.64-6.57-21.21-6.57-21.21H70.87z"/>
			<path class="st1" d="M70.87,24.41v23.74H58.02c0,0-5.04-18.81-4.59-21.45C53.89,24.07,70.87,24.41,70.87,24.41z"/>
			<polygon class="st1" points="70.87,3.75 70.87,24.04 63.18,24.04 63.18,22.9 64.44,21.87 66.28,19.34 62.5,19.57 62.5,10.86 
				67.02,11.54 70.86,3.75 			"/>
			<rect x="60.87" y="124.15" class="st1" width="10" height="13.83"/>
			<polygon class="st1" points="70.87,124.15 70.87,124.15 60.87,124.15 57.96,124.15 57.96,124.15 			"/>
			<rect x="45.15" y="118.56" class="st1" width="25.72" height="5.28"/>
			<rect x="61.38" y="109.54" class="st1" width="9.48" height="8.65"/>
			<rect x="50.8" y="57.11" class="st1" width="20.07" height="5.28"/>
			<rect x="54.3" y="51.65" class="st1" width="16.57" height="5.27"/>
			<rect x="55.84" y="48.46" class="st1" width="15.02" height="2.98"/>
			<path class="st1" d="M70.86,3.75l-3.84,7.79C64.17,8.69,70.69,3.87,70.86,3.75z"/>
			<rect x="58.62" y="109.54" class="st1" width="2.76" height="8.65"/>
			<rect x="57.96" y="124.15" class="st1" width="2.91" height="13.83"/>
			<path class="st1" d="M58.62,109.54v8.65h-9.06c5.58,0-0.07-8.65-0.07-8.65H58.62z"/>
			<path class="st1" d="M57.96,124.15v13.83h-9.62c0,0,5.96-13.83,0.07-13.83H57.96z"/>
		</g>
		<g>
		</g>
	</g>
</g>
<g id="Layer_3">
	<path id="SVGID_x5F_1_x5F_" class="st2" d="M140.25,56.43C155.4,149.93,24.15,176.11,1.49,85.3
		C-13.67-8.2,117.58-34.38,140.25,56.43z"/>
	<text>	<textPath  xlink:href="#SVGID_x5F_1_x5F_" startOffset="121.044%">
<tspan  class="st1" style="font-family:'AppleGothic'; font-size:13.0294px;">chesstuition.co.uk</tspan>	</textPath>
</text>
</g>
</svg>
