<?xml version="1.0" encoding="utf-8"?>
<!-- Generator: Adobe Illustrator 23.1.1, SVG Export Plug-In . SVG Version: 6.00 Build 0)  -->
<svg version="1.1" xmlns="http://www.w3.org/2000/svg" xmlns:xlink="http://www.w3.org/1999/xlink" x="0px" y="0px"
	 viewBox="0 0 566.4 567.7" style="enable-background:new 0 0 566.4 567.7;" xml:space="preserve">
<style type="text/css">
	.st0{fill:#FFFFFF;}
	.st1{fill:none;}
</style>
<g id="Layer_4">
</g>
<g id="Layer_2">
	<g id="XMLID_1_">
		<g>
			<path class="st0" d="M368.56,465.49c-21.43,0,0.26-33.21,0.26-33.21h-41.36h-4.25H283.2v-1h55.89c0,0-8.17-56.43-14.08-97.26
				c-5.91-40.84,25.2-81.41,25.2-81.41H283.2v-1.3h77.02v-20.25H283.2v-0.72h63.59V210.1H283.2v-0.78h57.65v-11.44H283.2v-1.2h49.29
				c0,0,19.36-72.18,17.6-82.3c-1.76-10.12-66.89-8.8-66.89-8.8v-1.4h29.49v-4.4l-4.84-3.96l-7.04-9.68l14.52,0.88V53.57
				l-17.39,2.64c10.98-10.97-14.08-29.44-14.73-29.91h-0.01V11.91c150.19,0,271.95,121.75,271.95,271.95
				c0,118.68-76.02,219.6-182.03,256.72c-2.81-6.78-20.84-52.25,0.07-52.25h-43.33v-0.01H283.2v-1.19h98.7v-20.25h-98.7v-1.39h40.01
				h4.25H368.56z"/>
			<path class="st0" d="M373.47,541.42h-2.79c0.81-0.27,1.63-0.55,2.44-0.84C373.34,541.13,373.47,541.42,373.47,541.42z"/>
			<path class="st0" d="M329.86,541.42h40.82c-27.45,9.32-56.88,14.38-87.48,14.38v-14.38h42.19H329.86z"/>
			<polygon class="st0" points="329.86,488.32 329.86,488.33 325.39,488.33 283.2,488.33 283.2,488.32 			"/>
			<path class="st0" d="M283.2,252.61v178.67h-55.89c0,0,8.17-56.43,14.09-97.26c5.91-40.84-25.2-81.41-25.2-81.41H283.2z"/>
			<path class="st0" d="M283.2,105.58v91.1h-49.29c0,0-19.36-72.18-17.6-82.3C218.07,104.26,283.2,105.58,283.2,105.58z"/>
			<polygon class="st0" points="283.2,26.3 283.2,104.18 253.72,104.18 253.72,99.78 258.56,95.82 265.6,86.14 251.08,87.02 
				251.08,53.57 268.46,56.21 283.19,26.3 			"/>
			<rect x="244.83" y="488.33" class="st0" width="38.37" height="53.09"/>
			<polygon class="st0" points="283.2,488.32 283.2,488.33 244.83,488.33 233.67,488.33 233.67,488.32 			"/>
			<rect x="184.51" y="466.88" class="st0" width="98.69" height="20.25"/>
			<rect x="246.81" y="432.28" class="st0" width="36.39" height="33.21"/>
			<rect x="206.18" y="231.06" class="st0" width="77.02" height="20.25"/>
			<rect x="219.62" y="210.1" class="st0" width="63.58" height="20.24"/>
			<rect x="225.55" y="197.88" class="st0" width="57.65" height="11.44"/>
			<path class="st0" d="M283.19,26.3l-14.73,29.91C257.49,45.24,282.54,26.77,283.19,26.3z"/>
			<rect x="236.22" y="432.28" class="st0" width="10.59" height="33.21"/>
			<rect x="233.67" y="488.33" class="st0" width="11.16" height="53.09"/>
			<path class="st0" d="M236.22,432.28v33.21h-34.75c21.43,0-0.26-33.21-0.26-33.21H236.22z"/>
			<path class="st0" d="M233.67,488.33v53.09h-36.92c0,0,22.87-53.09,0.28-53.09H233.67z"/>
		</g>
		<g>
		</g>
	</g>
</g>
<g id="Layer_3">
	<path id="SVGID_x5F_1_x5F_" class="st1" d="M549.44,228.44c58.14,358.81-445.51,459.28-532.49,110.81
		C-41.18-19.55,462.48-120.02,549.44,228.44z"/>
	<text>	<textPath  xlink:href="#SVGID_x5F_1_x5F_" startOffset="121.044%">
<tspan  class="st0" style="font-family:'AppleGothic'; font-size:50px;">chesstuition.co.uk</tspan>	</textPath>
</text>
</g>
</svg>
